<svg width="20" height="20" viewBox="0 0 20 20" fill="none" xmlns="http://www.w3.org/2000/svg">
<path d="M14.0907 12.967C15.0939 11.9792 15.638 10.6707 15.6073 9.32011C15.5766 7.96933 14.9735 6.68295 13.9263 5.7346C12.879 4.78609 11.4702 4.25061 9.99966 4.2417H9.9279C8.47104 4.28555 7.08697 4.83683 6.05616 5.78381C5.02552 6.73063 4.42542 8.00214 4.37753 9.34052C4.35667 10.6861 4.90568 11.9863 5.90864 12.967C6.62186 13.6605 7.0087 14.5845 6.98533 15.5384C6.76255 15.5711 6.59968 15.7487 6.60252 15.956V18.1977H6.65041C6.75087 18.7022 7.04024 19.1586 7.46843 19.4877C7.89662 19.8169 8.43648 19.9981 8.99484 19.9999H11.0044C11.5628 19.9981 12.1026 19.8169 12.5308 19.4877C12.959 19.1586 13.2484 18.7022 13.3488 18.1977H13.3967V15.956C13.3994 15.7368 13.226 15.5493 12.99 15.5163C12.9577 14.5634 13.356 13.6406 14.0906 12.967L14.0907 12.967ZM6.60259 12.3516C5.76218 11.542 5.30609 10.4588 5.33463 9.34048C5.38186 8.2353 5.88099 7.18699 6.73241 6.40481C7.58367 5.62263 8.72479 5.16411 9.92797 5.1207H9.99973C11.2391 5.12653 12.4258 5.58291 13.2999 6.39009C14.1742 7.19739 14.6648 8.2897 14.6648 9.42847C14.667 10.5228 14.2134 11.5764 13.3968 12.3735C12.4924 13.205 11.9994 14.3412 12.0333 15.5163H10.4782V12.7252C10.7941 12.626 11.0692 12.4399 11.266 12.1921C11.4629 11.9445 11.572 11.6471 11.5787 11.3405C11.5787 10.8223 11.2777 10.3434 10.7892 10.0843C10.3006 9.82523 9.69886 9.82523 9.21022 10.0843C8.72175 10.3434 8.42074 10.8223 8.42074 11.3405C8.42742 11.6471 8.53655 11.9446 8.73347 12.1921C8.93022 12.4399 9.20541 12.626 9.52128 12.7252V15.5163H7.94228C7.95964 14.3416 7.47919 13.2068 6.6026 12.3515L6.60259 12.3516ZM9.99975 11.9121V11.9119C9.8347 11.9119 9.6765 11.8518 9.55985 11.7447C9.4432 11.6375 9.37779 11.4922 9.37779 11.3405C9.37779 11.1363 9.49627 10.9478 9.68868 10.8457C9.88125 10.7436 10.1182 10.7436 10.3108 10.8457C10.5032 10.9478 10.6217 11.1363 10.6217 11.3405C10.6217 11.4922 10.5563 11.6375 10.4396 11.7447C10.323 11.8518 10.1648 11.9119 9.99971 11.9119L9.99975 11.9121ZM11.0045 19.1209L8.99499 19.1207C8.69044 19.1196 8.39425 19.0296 8.14908 18.8638C7.90393 18.6977 7.7227 18.4645 7.63126 18.1976H12.3681C12.2767 18.4645 12.0955 18.6977 11.8503 18.8638C11.6052 19.0296 11.309 19.1196 11.0044 19.1207L11.0045 19.1209ZM7.55949 17.3186V16.3955H12.4399V17.3186H7.55949Z" fill="#0A3180"/>
<path d="M10.4783 2.41762V0.439521C10.4783 0.196837 10.2642 0 9.99991 0C9.73559 0 9.52148 0.196844 9.52148 0.439521V2.41762C9.52148 2.66031 9.73559 2.85714 9.99991 2.85714C10.2642 2.85714 10.4783 2.6603 10.4783 2.41762Z" fill="#0A3180"/>
<path d="M19.5221 7.95605H17.3691C17.1047 7.95605 16.8906 8.15275 16.8906 8.39557C16.8906 8.63826 17.1047 8.83509 17.3691 8.83509H19.5221C19.7864 8.83509 20.0005 8.63825 20.0005 8.39557C20.0005 8.15274 19.7864 7.95605 19.5221 7.95605Z" fill="#0A3180"/>
<path d="M2.63147 8.8351C2.89581 8.8351 3.1099 8.63825 3.1099 8.39558C3.1099 8.15274 2.8958 7.95605 2.63147 7.95605H0.47843C0.214095 7.95605 0 8.15275 0 8.39558C0 8.63826 0.214104 8.8351 0.47843 8.8351H2.63147Z" fill="#0A3180"/>
<path d="M3.11131 3.07688L4.61854 4.48347C4.71466 4.55169 4.83198 4.59017 4.95346 4.59324C5.08296 4.59324 5.20879 4.55476 5.31225 4.48347C5.47646 4.29766 5.47646 4.03166 5.31225 3.84603L3.78113 2.46153C3.59073 2.33015 3.32424 2.34763 3.15583 2.50231C2.98745 2.657 2.96843 2.90184 3.11127 3.07692L3.11131 3.07688Z" fill="#0A3180"/>
<path d="M16.8905 2.46154C16.8044 2.37523 16.6829 2.32617 16.5556 2.32617C16.4283 2.32617 16.3066 2.37523 16.2207 2.46154L14.6896 3.84604C14.5254 4.03169 14.5254 4.29769 14.6896 4.48348C14.793 4.55477 14.9189 4.59325 15.0484 4.59325C15.1698 4.59018 15.2872 4.5517 15.3833 4.48348L16.8905 3.07689C16.9843 2.99778 17.0377 2.88617 17.0377 2.7692C17.0377 2.65207 16.9843 2.54047 16.8905 2.46152L16.8905 2.46154Z" fill="#0A3180"/>
</svg>
