<svg width="20" height="20" viewBox="0 0 20 20" fill="none" xmlns="http://www.w3.org/2000/svg">
<path d="M19.5385 15.0977L15.4682 11.0306C15.265 10.8274 15.265 10.4952 15.4682 10.292L16.0875 9.67274C16.5035 9.25668 16.6519 8.65355 16.4745 8.09235C16.3003 7.53438 15.8327 7.12154 15.2553 7.01833L7.42433 5.60566C6.91796 5.51535 6.39869 5.67661 6.03423 6.04107C5.66978 6.40553 5.50851 6.9248 5.59882 7.42794L7.0115 15.2589C7.1147 15.8363 7.52754 16.3039 8.08552 16.4781C8.64349 16.6523 9.24984 16.5039 9.66591 16.0911L10.2852 15.4718C10.4884 15.2686 10.8206 15.2686 11.0238 15.4718L15.0908 19.5421C15.3972 19.8485 15.7972 20.0001 16.2003 20.0001C16.6035 20.0001 17.0034 19.8485 17.3098 19.5421L19.5288 17.3231C20.1481 16.7071 20.1481 15.7105 19.5385 15.0977ZM18.7967 16.5781L16.5777 18.7971C16.3745 19.0003 16.0423 19.0003 15.8391 18.7971L11.7688 14.73C11.4624 14.4236 11.0625 14.272 10.6593 14.272C10.2561 14.272 9.8562 14.4236 9.5498 14.73L8.93054 15.3492C8.78863 15.4912 8.59189 15.5363 8.40482 15.4783C8.21453 15.4202 8.08229 15.2686 8.04681 15.0719L6.63414 7.24088C6.60188 7.06994 6.65671 6.90222 6.77927 6.77966C6.90184 6.6571 7.06955 6.60227 7.24372 6.63452L15.0747 8.0472C15.2715 8.08268 15.423 8.21491 15.4811 8.40521C15.5392 8.5955 15.4908 8.79224 15.3521 8.93093L14.7328 9.55018C14.12 10.163 14.12 11.1564 14.7328 11.7692L18.8031 15.8363C19.0031 16.0427 19.0031 16.3749 18.7967 16.5781Z" fill="#FAF1E2"/>
<path d="M2.32263 1.58355C2.11943 1.38035 1.78723 1.38035 1.58404 1.58355C1.38084 1.78674 1.38084 2.11894 1.58404 2.32214L2.69353 3.43164C2.79674 3.53485 2.92898 3.58645 3.06444 3.58645C3.1999 3.58645 3.33214 3.53485 3.43535 3.43164C3.63854 3.22844 3.63854 2.89624 3.43535 2.69305L2.32263 1.58355Z" fill="#FAF1E2"/>
<path d="M2.61571 5.40555C2.61571 5.11528 2.38026 4.88306 2.09321 4.88306H0.522496C0.232221 4.88306 0 5.1185 0 5.40555C0 5.6926 0.235446 5.92805 0.522496 5.92805H2.09321C2.38349 5.92805 2.61571 5.69583 2.61571 5.40555Z" fill="#FAF1E2"/>
<path d="M2.69353 7.37945L1.58404 8.48894C1.38084 8.69214 1.38084 9.02434 1.58404 9.22754C1.68724 9.33074 1.81948 9.38235 1.95494 9.38235C2.09041 9.38235 2.22264 9.33074 2.32585 9.22754L3.43535 8.11804C3.63854 7.91484 3.63854 7.58264 3.43535 7.37945C3.22893 7.17625 2.89995 7.17625 2.69353 7.37945Z" fill="#FAF1E2"/>
<path d="M7.75055 3.58645C7.88601 3.58645 8.01825 3.53485 8.12145 3.43164L9.23095 2.32214C9.43415 2.11894 9.43415 1.78674 9.23095 1.58355C9.02776 1.38035 8.69556 1.38035 8.49236 1.58355L7.38286 2.69305C7.17967 2.89624 7.17967 3.22844 7.38286 3.43164C7.48285 3.53485 7.61508 3.58645 7.75055 3.58645Z" fill="#FAF1E2"/>
<path d="M5.92781 2.09321V0.522496C5.92781 0.232221 5.69236 0 5.40531 0C5.11826 0 4.88281 0.235446 4.88281 0.522496V2.09321C4.88281 2.38349 5.11826 2.61571 5.40531 2.61571C5.69236 2.61571 5.92781 2.38349 5.92781 2.09321Z" fill="#FAF1E2"/>
</svg>
