<svg width="19" height="20" viewBox="0 0 19 20" fill="none" xmlns="http://www.w3.org/2000/svg">
<path d="M14.7624 0C15.0322 0 15.2548 0.203182 15.2851 0.464884L15.2886 0.52621V1.57896H16.8675C17.995 1.57896 18.9155 2.46519 18.9702 3.57906L18.9728 3.68409V17.3685C18.9728 18.7836 17.8557 19.9378 16.4553 19.9975L16.3413 20H2.65688C1.24184 20 0.0875867 18.8829 0.0278577 17.4825L0.0253906 17.3685V3.68406C0.0253906 2.55661 0.911626 1.63618 2.0255 1.58141L2.1307 1.57895H3.70964V0.526201C3.70964 0.235614 3.94525 9.1208e-06 4.23583 9.1208e-06C4.5058 9.1208e-06 4.72819 0.203191 4.75868 0.464893L4.76221 0.526219V1.57896H14.2358V0.526219C14.2358 0.235632 14.4714 2.71903e-05 14.7622 2.71903e-05L14.7624 0ZM17.9203 6.84176H1.07797V17.3683C1.07797 18.178 1.68753 18.8454 2.47276 18.9365L2.56421 18.9444L2.65691 18.9473H16.3413C17.1821 18.9473 17.8695 18.29 17.9175 17.461L17.9203 17.3683L17.9203 6.84176ZM3.97284 15.2629C4.40881 15.2629 4.76231 15.6164 4.76231 16.0524C4.76231 16.4883 4.40881 16.8418 3.97284 16.8418C3.53686 16.8418 3.18337 16.4883 3.18337 16.0524C3.18337 15.6164 3.53686 15.2629 3.97284 15.2629ZM7.65708 15.2629C8.09306 15.2629 8.44655 15.6164 8.44655 16.0524C8.44655 16.4883 8.09306 16.8418 7.65708 16.8418C7.22094 16.8418 6.86761 16.4883 6.86761 16.0524C6.86761 15.6164 7.22094 15.2629 7.65708 15.2629ZM11.3412 15.2629C11.7773 15.2629 12.1306 15.6164 12.1306 16.0524C12.1306 16.4883 11.7773 16.8418 11.3412 16.8418C10.9052 16.8418 10.5517 16.4883 10.5517 16.0524C10.5517 15.6164 10.9052 15.2629 11.3412 15.2629ZM15.0254 15.2629C15.4614 15.2629 15.8149 15.6164 15.8149 16.0524C15.8149 16.4883 15.4614 16.8418 15.0254 16.8418C14.5894 16.8418 14.2359 16.4883 14.2359 16.0524C14.2359 15.6164 14.5894 15.2629 15.0254 15.2629ZM3.97284 12.105C4.40881 12.105 4.76231 12.4585 4.76231 12.8945C4.76231 13.3305 4.40881 13.684 3.97284 13.684C3.53686 13.684 3.18337 13.3305 3.18337 12.8945C3.18337 12.4585 3.53686 12.105 3.97284 12.105ZM7.65708 12.105C8.09306 12.105 8.44655 12.4585 8.44655 12.8945C8.44655 13.3305 8.09306 13.684 7.65708 13.684C7.22094 13.684 6.86761 13.3305 6.86761 12.8945C6.86761 12.4585 7.22094 12.105 7.65708 12.105ZM11.3412 12.105C11.7773 12.105 12.1306 12.4585 12.1306 12.8945C12.1306 13.3305 11.7773 13.684 11.3412 13.684C10.9052 13.684 10.5517 13.3305 10.5517 12.8945C10.5517 12.4585 10.9052 12.105 11.3412 12.105ZM15.0254 12.105C15.4614 12.105 15.8149 12.4585 15.8149 12.8945C15.8149 13.3305 15.4614 13.684 15.0254 13.684C14.5894 13.684 14.2359 13.3305 14.2359 12.8945C14.2359 12.4585 14.5894 12.105 15.0254 12.105ZM7.65717 8.94716C8.09315 8.94716 8.44664 9.30066 8.44664 9.73663C8.44664 10.1726 8.09315 10.5261 7.65717 10.5261C7.22103 10.5261 6.86771 10.1726 6.86771 9.73663C6.86771 9.30066 7.22103 8.94716 7.65717 8.94716ZM11.3412 8.94716C11.7774 8.94716 12.1307 9.30066 12.1307 9.73663C12.1307 10.1726 11.7774 10.5261 11.3412 10.5261C10.9053 10.5261 10.5518 10.1726 10.5518 9.73663C10.5518 9.30066 10.9053 8.94716 11.3412 8.94716ZM15.0255 8.94716C15.4615 8.94716 15.815 9.30066 15.815 9.73663C15.815 10.1726 15.4615 10.5261 15.0255 10.5261C14.5895 10.5261 14.236 10.1726 14.236 9.73663C14.236 9.30066 14.5895 8.94716 15.0255 8.94716ZM3.70992 2.63141H2.13098C1.57605 2.63141 1.12141 3.06086 1.08122 3.60557L1.07822 3.68399V5.7893H17.9205V3.68399C17.9205 3.1569 17.5328 2.72025 17.0272 2.64342L16.9464 2.63426L16.8678 2.63144H15.2888V3.68401C15.2888 3.97477 15.0532 4.21038 14.7626 4.21038C14.4927 4.21038 14.2703 4.0072 14.2398 3.7455L14.2363 3.68399V2.63143H4.76263V3.68399C4.76263 3.97476 4.52702 4.21037 4.23626 4.21037C3.96646 4.21037 3.7439 4.00718 3.71359 3.74548L3.71006 3.68398L3.70992 2.63141Z" fill="#0A3180"/>
</svg>
