<svg width="66" height="60" viewBox="0 0 66 60" fill="none" xmlns="http://www.w3.org/2000/svg">
<path d="M54.4224 45.5755C55.4966 45.5755 56.4173 46.4962 56.4173 47.5703C56.4173 48.6445 55.4966 49.4118 54.4224 49.4118H14.3713C12.8368 49.4118 11.916 47.7238 12.6833 46.4962L16.2127 39.2839L10.535 8.59335C10.0746 5.8312 7.77282 3.83632 5.01067 3.83632H2.55543C1.48126 3.83632 0.560547 3.06905 0.560547 1.99488C0.560547 0.920716 1.48126 0 2.55543 0H5.01067C9.30735 0 12.9902 2.76215 14.2178 6.90537L63.6296 11.8159C64.8572 11.8159 65.7779 13.1969 65.3176 14.4246L56.2639 38.977C55.957 39.7442 55.3432 40.3581 54.5759 40.3581L19.1283 42.1995L17.5938 45.5755H54.4224ZM14.9851 10.8951L20.049 38.3632L53.0414 36.5217L60.714 15.3453L14.9851 10.8951Z" fill="#3B3B3B"/>
<path fill-rule="evenodd" clip-rule="evenodd" d="M17.5941 52.3274C19.7425 52.3274 21.4304 54.0154 21.4304 56.1637C21.4304 58.312 19.7425 60 17.5941 60C15.4458 60 13.7578 58.312 13.7578 56.1637C13.7578 54.0154 15.4458 52.3274 17.5941 52.3274Z" fill="#3B3B3B"/>
<path fill-rule="evenodd" clip-rule="evenodd" d="M50.5863 52.3274C52.7347 52.3274 54.4226 54.0154 54.4226 56.1637C54.4226 58.312 52.7347 60 50.5863 60C48.438 60 46.75 58.312 46.75 56.1637C46.75 54.0154 48.438 52.3274 50.5863 52.3274Z" fill="#3B3B3B"/>
</svg>
