<svg width="20" height="20" viewBox="0 0 20 20" fill="none" xmlns="http://www.w3.org/2000/svg">
<path d="M6.9232 -0.000244141H2.30773C1.03523 -0.000244141 0 1.03498 0 2.30749V6.92295C0 8.19546 1.03523 9.23069 2.30773 9.23069H6.9232C8.1957 9.23069 9.23093 8.19546 9.23093 6.92295V2.30749C9.23093 1.03498 8.1957 -0.000244141 6.9232 -0.000244141ZM7.69244 6.92295C7.69244 7.34741 7.34765 7.6922 6.9232 7.6922H2.30773C1.88328 7.6922 1.53849 7.34741 1.53849 6.92295V2.30749C1.53849 1.88303 1.88328 1.53824 2.30773 1.53824H6.9232C7.34765 1.53824 7.69244 1.88303 7.69244 2.30749V6.92295Z" fill="#F39E41"/>
<path d="M17.6927 10.7693H13.0773C11.8048 10.7693 10.7695 11.8045 10.7695 13.077V17.6925C10.7695 18.965 11.8048 20.0002 13.0773 20.0002H17.6927C18.9652 20.0002 20.0005 18.965 20.0005 17.6925V13.077C20.0005 11.8045 18.9652 10.7693 17.6927 10.7693ZM18.462 17.6925C18.462 18.1169 18.1172 18.4617 17.6927 18.4617H13.0773C12.6528 18.4617 12.308 18.1169 12.308 17.6925V13.077C12.308 12.6526 12.6528 12.3078 13.0773 12.3078H17.6927C18.1172 12.3078 18.462 12.6526 18.462 13.077V17.6925Z" fill="#F39E41"/>
<path d="M13.7998 7.19424C13.95 7.34432 14.1935 7.34432 14.3437 7.19424L14.8875 6.65046C15.0378 6.50021 15.0378 6.25673 14.8875 6.10649L13.3959 4.61521H16.154C16.5788 4.61521 16.9232 4.95965 16.9232 5.38446V8.84605C16.9232 9.05845 17.0955 9.23068 17.3079 9.23068H18.0771C18.2895 9.23068 18.4617 9.05845 18.4617 8.84605V5.38446C18.4617 4.10988 17.4286 3.07672 16.154 3.07672H13.3954L14.8868 1.58478C15.0369 1.43454 15.0369 1.19106 14.8868 1.04099L14.343 0.497205C14.1928 0.34696 13.9493 0.34696 13.7991 0.497205L10.9947 3.30218C10.6944 3.60249 10.6944 4.08944 10.9949 4.38976L13.7998 7.19424Z" fill="#F39E41"/>
<path d="M6.20103 12.8057C6.05079 12.6555 5.80731 12.6556 5.65707 12.8057L5.11328 13.3495C4.96303 13.4998 4.96303 13.7432 5.11328 13.8935L6.60491 15.3848H3.84679C3.42199 15.3848 3.07755 15.0403 3.07755 14.6155V11.1539C3.07755 10.9415 2.90533 10.7693 2.69293 10.7693H1.92368C1.71129 10.7693 1.53906 10.9415 1.53906 11.1539V14.6155C1.53906 15.8901 2.57222 16.9232 3.84679 16.9232H6.60544L5.11398 18.4152C4.96391 18.5654 4.96391 18.8089 5.11398 18.9591L5.65777 19.5029C5.80802 19.6532 6.05149 19.6532 6.20174 19.5029L9.00605 16.698C9.30636 16.3976 9.30636 15.9107 9.00588 15.6104L6.20103 12.8057Z" fill="#F39E41"/>
<path fill-rule="evenodd" clip-rule="evenodd" d="M17.4119 14.6254L15.1225 17.0066C14.995 17.1392 14.791 17.1392 14.6636 17.0066L13.5214 15.8083C13.3939 15.6758 13.3939 15.4616 13.5214 15.329C13.6489 15.1965 13.8528 15.1965 13.9803 15.329L14.8981 16.2876L16.9581 14.1461C17.0856 14.0135 17.2895 14.0135 17.417 14.1461C17.5394 14.2786 17.5394 14.4928 17.4119 14.6254H17.4119Z" fill="#F39E41"/>
<rect x="3.00977" y="2.50537" width="5.24477" height="0.716689" rx="0.358344" transform="rotate(45 3.00977 2.50537)" fill="#F39E41"/>
<rect x="6.71875" y="3.01221" width="5.24477" height="0.716689" rx="0.358344" transform="rotate(135 6.71875 3.01221)" fill="#F39E41"/>
</svg>
