<svg width="66" height="60" viewBox="0 0 66 60" fill="none" xmlns="http://www.w3.org/2000/svg">
<path d="M0.492188 27.7685C1.48392 27.7685 2.33103 27.6034 3.03351 27.2727C3.73599 26.9008 4.31451 26.4463 4.76905 25.9091C5.26491 25.3307 5.61616 24.6901 5.82276 23.9877C6.0707 23.2437 6.19466 22.4999 6.19466 21.7562V10.5992C6.19466 8.90495 6.38062 7.39668 6.75253 6.07438C7.12441 4.75207 7.76491 3.65704 8.674 2.78927C9.5831 1.88017 10.7814 1.19835 12.269 0.743803C13.798 0.247934 15.6781 0 17.9095 0H18.1575V4.5248C15.8021 4.5248 14.1079 4.95869 13.0748 5.82646C12.0831 6.6529 11.5872 8.26447 11.5872 10.6612V20.2066C11.5872 22.9338 11.2153 25.0414 10.4715 26.5289C9.76904 28.0166 8.75666 29.1735 7.43433 30C8.75666 30.8263 9.76904 31.9834 10.4715 33.4711C11.2153 34.9586 11.5872 37.0662 11.5872 39.7933V49.3387C11.5872 51.7356 12.0831 53.3471 13.0748 54.1736C14.1079 55.0414 15.8021 55.4752 18.1575 55.4752V60H17.9095C15.6781 60 13.798 59.7727 12.269 59.3182C10.7814 58.8636 9.5831 58.1818 8.674 57.2727C7.76491 56.3635 7.12441 55.2479 6.75253 53.9257C6.38062 52.6033 6.19466 51.095 6.19466 49.4007V38.2438C6.19466 37.5001 6.0707 36.7769 5.82276 36.0743C5.61616 35.3305 5.26491 34.6901 4.76905 34.1529C4.31451 33.5743 3.73599 33.1198 3.03351 32.7893C2.33103 32.4175 1.48392 32.2313 0.492188 32.2313V27.7685Z" fill="#3B3B3B"/>
<path d="M65.5051 32.2313C64.5134 32.2313 63.6663 32.4175 62.9637 32.7893C62.2613 33.1198 61.6621 33.5743 61.1663 34.1529C60.7118 34.6901 60.3605 35.3305 60.1126 36.0743C59.9059 36.7769 59.8027 37.5001 59.8027 38.2438V49.4007C59.8027 51.095 59.6168 52.6033 59.2449 53.9257C58.8728 55.2479 58.2324 56.3635 57.3233 57.2727C56.4142 58.1818 55.1951 58.8636 53.6662 59.3182C52.1787 59.7727 50.3191 60 48.0878 60H47.8398V55.4752C50.1951 55.4752 51.8688 55.0414 52.8605 54.1736C53.8935 53.3471 54.41 51.7356 54.41 49.3387V39.7933C54.41 37.0662 54.7613 34.9586 55.4639 33.4711C56.2076 31.9834 57.2407 30.8263 58.5629 30C57.2407 29.1735 56.2076 28.0166 55.4639 26.5289C54.7613 25.0414 54.41 22.9338 54.41 20.2066V10.6612C54.41 8.26447 53.8935 6.6529 52.8605 5.82646C51.8688 4.95869 50.1951 4.5248 47.8398 4.5248V0H48.0878C50.3191 0 52.1787 0.247934 53.6662 0.743803C55.1951 1.19835 56.4142 1.88017 57.3233 2.78927C58.2324 3.65704 58.8728 4.75207 59.2449 6.07438C59.6168 7.39668 59.8027 8.90495 59.8027 10.5992V21.7562C59.8027 22.4999 59.9059 23.2437 60.1126 23.9877C60.3605 24.6901 60.7118 25.3307 61.1663 25.9091C61.6621 26.4463 62.2613 26.9008 62.9637 27.2727C63.6663 27.6034 64.5134 27.7685 65.5051 27.7685V32.2313Z" fill="#3B3B3B"/>
</svg>
