<svg width="60" height="60" viewBox="0 0 60 60" fill="none" xmlns="http://www.w3.org/2000/svg">
<path d="M59.4296 35.8272C60.1901 31.9796 60.1901 28.0204 59.4296 24.1728L51.9222 22.4793C51.6116 21.5682 51.2442 20.6774 50.8221 19.8123L54.9291 13.3317C52.7402 10.066 49.934 7.25981 46.6683 5.07087L40.161 9.17794C39.2959 8.75588 38.4052 8.38846 37.4941 8.07783L35.8272 0.570425C31.9796 -0.190142 28.0204 -0.190142 24.1728 0.570425L22.4793 8.07117C21.5682 8.38179 20.6774 8.74921 19.8123 9.17128L13.3317 5.07087C10.066 7.25981 7.25981 10.066 5.07087 13.3317L9.17794 19.839C8.75585 20.7041 8.38842 21.5948 8.07783 22.5059L0.570425 24.1728C-0.190142 28.0204 -0.190142 31.9796 0.570425 35.8272L8.07783 37.5207C8.38844 38.4318 8.75586 39.3226 9.17794 40.1877L5.07087 46.6683C7.25981 49.934 10.066 52.7402 13.3317 54.9291L19.839 50.8221C20.7041 51.2441 21.5948 51.6116 22.5059 51.9222L24.1994 59.4296C28.047 60.1901 32.0063 60.1901 35.8539 59.4296L37.5474 51.9222C38.4585 51.6116 39.3492 51.2441 40.2143 50.8221L46.6683 54.9291C49.934 52.7402 52.7402 49.934 54.9291 46.6683L50.8221 40.161C51.2441 39.2959 51.6116 38.4052 51.9222 37.4941L59.4296 35.8272ZM49.3752 34.6671L48.7685 36.4273C48.5029 37.2062 48.1889 37.9678 47.8284 38.7075L47.0083 40.381L48.0018 41.9678L50.9021 46.5616C49.6259 48.1738 48.1671 49.6326 46.555 50.9087L41.9678 48.0018L40.3944 47.0083L38.7209 47.8284C37.9811 48.1889 37.2195 48.5029 36.4406 48.7685L34.6671 49.3752L34.2604 51.1888L33.0603 56.4893C31.0181 56.727 28.9552 56.727 26.913 56.4893L25.7129 51.1888L25.3329 49.3752L23.5727 48.7685C22.7938 48.5029 22.0322 48.1889 21.2925 47.8284L19.619 47.0083L18.0322 48.0018L13.4384 50.9021C11.8262 49.6259 10.3674 48.1671 9.09127 46.555L11.9982 41.9678L12.9917 40.3944L12.1716 38.7209C11.8111 37.9811 11.4971 37.2195 11.2315 36.4406L10.6248 34.6671L8.81124 34.2604L3.51072 33.0603C3.27293 31.0181 3.27293 28.9552 3.51072 26.913L8.81124 25.7129L10.6248 25.3329L11.2315 23.5727C11.4971 22.7938 11.8111 22.0323 12.1716 21.2925L12.9917 19.619L11.9982 18.0322L9.09793 13.4384C10.3741 11.8262 11.8329 10.3674 13.445 9.09127L18.0322 11.9982L19.6056 12.9917L21.2791 12.1716C22.0189 11.8111 22.7805 11.4971 23.5594 11.2315L25.3329 10.6248L25.7396 8.81124L26.9397 3.51072C28.9819 3.27299 31.0448 3.27299 33.087 3.51072L34.2871 8.81124L34.6671 10.6248L36.4273 11.2315C37.2062 11.4971 37.9677 11.8111 38.7075 12.1716L40.381 12.9917L41.9678 11.9982L46.5616 9.09793C48.1738 10.3741 49.6326 11.8328 50.9087 13.445L48.0018 18.0322L47.0083 19.6056L47.8284 21.2791C48.1889 22.0189 48.5029 22.7805 48.7685 23.5594L49.3752 25.3329L51.1888 25.7396L56.4893 26.9397C56.7271 28.9819 56.7271 31.0448 56.4893 33.087L51.1888 34.2871L49.3752 34.6671Z" fill="#3B3B3B"/>
<path d="M29.9987 16.6653C27.3614 16.6653 24.7833 17.4473 22.5904 18.9126C20.3975 20.3778 18.6884 22.4604 17.6791 24.897C16.6698 27.3336 16.4058 30.0147 16.9203 32.6014C17.4348 35.1881 18.7048 37.5641 20.5697 39.429C22.4346 41.2938 24.8106 42.5638 27.3973 43.0784C29.9839 43.5929 32.6651 43.3288 35.1017 42.3195C37.5383 41.3103 39.6208 39.6011 41.0861 37.4083C42.5513 35.2154 43.3334 32.6373 43.3334 29.9999C43.3334 26.4634 41.9285 23.0716 39.4277 20.5709C36.927 18.0702 33.5353 16.6653 29.9987 16.6653ZM29.9987 40.0009C28.0207 40.0009 26.0871 39.4144 24.4425 38.3155C22.7978 37.2165 21.516 35.6546 20.759 33.8271C20.0021 31.9997 19.804 29.9888 20.1899 28.0488C20.5758 26.1088 21.5283 24.3268 22.927 22.9282C24.3256 21.5295 26.1076 20.577 28.0476 20.1911C29.9876 19.8052 31.9985 20.0033 33.8259 20.7602C35.6534 21.5172 37.2153 22.799 38.3142 24.4437C39.4132 26.0883 39.9997 28.0219 39.9997 29.9999C39.9997 32.6524 38.946 35.1962 37.0705 37.0717C35.1949 38.9473 32.6511 40.0009 29.9987 40.0009Z" fill="#3B3B3B"/>
</svg>
