<svg width="60" height="60" viewBox="0 0 60 60" fill="none" xmlns="http://www.w3.org/2000/svg">
<path d="M24 40.2353C23.3647 39.6 22.5882 39.2471 21.6706 39.2471C20.7529 39.2471 19.9765 39.6 19.3412 40.2353C18.7059 40.8706 18.3529 41.6471 18.3529 42.6353C18.3529 43.5529 18.7059 44.3294 19.3412 45.0353C19.9765 45.6706 20.7529 46.0235 21.6706 46.0235C22.5882 46.0235 23.3647 45.6706 24 45.0353C24.6353 44.4 24.9176 43.6235 24.9176 42.6353C24.9882 41.7176 24.6353 40.9412 24 40.2353ZM24 40.2353C23.3647 39.6 22.5882 39.2471 21.6706 39.2471C20.7529 39.2471 19.9765 39.6 19.3412 40.2353C18.7059 40.8706 18.3529 41.6471 18.3529 42.6353C18.3529 43.5529 18.7059 44.3294 19.3412 45.0353C19.9765 45.6706 20.7529 46.0235 21.6706 46.0235C22.5882 46.0235 23.3647 45.6706 24 45.0353C24.6353 44.4 24.9176 43.6235 24.9176 42.6353C24.9882 41.7176 24.6353 40.9412 24 40.2353ZM24 40.2353C23.3647 39.6 22.5882 39.2471 21.6706 39.2471C20.7529 39.2471 19.9765 39.6 19.3412 40.2353C18.7059 40.8706 18.3529 41.6471 18.3529 42.6353C18.3529 43.5529 18.7059 44.3294 19.3412 45.0353C19.9765 45.6706 20.7529 46.0235 21.6706 46.0235C22.5882 46.0235 23.3647 45.6706 24 45.0353C24.6353 44.4 24.9176 43.6235 24.9176 42.6353C24.9882 41.7176 24.6353 40.9412 24 40.2353ZM24 40.2353C23.3647 39.6 22.5882 39.2471 21.6706 39.2471C20.7529 39.2471 19.9765 39.6 19.3412 40.2353C18.7059 40.8706 18.3529 41.6471 18.3529 42.6353C18.3529 43.5529 18.7059 44.3294 19.3412 45.0353C19.9765 45.6706 20.7529 46.0235 21.6706 46.0235C22.5882 46.0235 23.3647 45.6706 24 45.0353C24.6353 44.4 24.9176 43.6235 24.9176 42.6353C24.9882 41.7176 24.6353 40.9412 24 40.2353ZM0 0L0 60L60 60V0L0 0ZM15.8824 46.5882H15.1059V41.6471C15.1059 40.9412 14.8941 40.3059 14.4706 39.8824C14.0471 39.4588 13.4824 39.2471 12.7765 39.2471C12 39.2471 11.2941 39.5294 10.8 40.0235C10.3059 40.5882 10.0235 41.3647 10.0235 42.3529V46.5882H9.24706V35.5765H10.0235V40.2353C10.5882 39.1059 11.5059 38.5412 12.8471 38.5412C13.7647 38.5412 14.5412 38.8235 15.1059 39.3882C15.6706 39.9529 15.9529 40.7294 15.9529 41.6471V46.5882H15.8824ZM11.2235 31.3412C9.81176 29.9294 9.10588 27.8824 9.10588 25.3412L9.10588 13.2706L14.9647 13.2706L14.9647 24.4235C14.9647 25.5529 15.3176 26.4706 15.9529 27.1059C16.5882 27.7412 17.4353 28.0235 18.4235 28.0235C19.5529 28.0235 20.4706 27.6706 21.1059 27.0353C21.7412 26.3294 22.0941 25.3412 22.0941 24V13.2706H27.9529V32.8941H22.0941V31.0588C20.8941 32.6824 19.0588 33.4588 16.4471 33.4588C14.3294 33.4588 12.6353 32.7529 11.2235 31.3412ZM24.5647 45.5294C23.7882 46.3059 22.8 46.7294 21.6706 46.7294C20.5412 46.7294 19.5529 46.3059 18.7765 45.5294C18 44.7529 17.5765 43.7647 17.5765 42.6353C17.5765 41.5059 18 40.5176 18.7765 39.7412C19.5529 38.9647 20.5412 38.5412 21.6706 38.5412C22.8 38.5412 23.7882 38.9647 24.5647 39.7412C25.3412 40.5176 25.7647 41.5059 25.7647 42.6353C25.7647 43.7647 25.4118 44.7529 24.5647 45.5294ZM34.0941 46.5882H33.3176V45.1059C32.7529 46.2353 31.8353 46.8 30.4941 46.8C29.5765 46.8 28.8 46.5176 28.2353 45.9529C27.6706 45.3882 27.3882 44.6118 27.3882 43.6941V38.8235H28.2353V43.6941C28.2353 44.4 28.4471 45.0353 28.8706 45.4588C29.2941 45.8824 29.8588 46.0941 30.5647 46.0941C31.3412 46.0941 32.0471 45.8118 32.5412 45.3176C33.0353 44.7529 33.3176 44.0471 33.3176 42.9882V38.8235H34.0941V46.5882ZM41.0118 46.0941C40.5176 46.5177 39.8118 46.7294 38.9647 46.7294C38.1882 46.7294 37.5529 46.5882 37.0588 46.2353C36.5647 45.9529 36.1412 45.5294 36 44.9647L36.7059 44.5412C36.8471 44.9647 37.1294 45.3176 37.5529 45.5294C37.9765 45.7412 38.4706 45.8824 39.0353 45.8824C39.6 45.8824 40.0941 45.7412 40.5177 45.5294C40.8706 45.2471 41.0824 44.8941 41.0824 44.4706C41.0824 44.1176 40.9412 43.7647 40.5882 43.5529C40.2353 43.3412 39.8824 43.1294 39.3882 43.0588C38.8941 42.9176 38.4706 42.8471 37.9765 42.7059C37.4824 42.5647 37.1294 42.3529 36.7765 42C36.4235 41.7176 36.2824 41.2941 36.2824 40.7294C36.2824 40.0941 36.4941 39.6 37.0588 39.1765C37.5529 38.7529 38.1882 38.5412 38.9647 38.5412C39.6 38.5412 40.1647 38.6824 40.5882 38.9647C41.0118 39.2471 41.3647 39.6 41.6471 40.0941L41.0118 40.4471C40.8706 40.0941 40.5882 39.7412 40.2353 39.5294C39.8824 39.3176 39.4588 39.2471 39.0353 39.2471C38.4706 39.2471 38.0471 39.3882 37.6941 39.6706C37.3412 39.9529 37.1294 40.3059 37.1294 40.7294C37.1294 41.0824 37.2706 41.4353 37.6235 41.6471C37.9765 41.8588 38.3294 42.0706 38.8235 42.1412C39.3176 42.2824 39.7412 42.3529 40.2353 42.4941C40.7294 42.6353 41.0824 42.8471 41.4353 43.2C41.7882 43.5529 41.9294 43.9059 41.9294 44.4706C41.7882 45.1765 41.5059 45.6706 41.0118 46.0941ZM50.8235 42.8471C50.8235 42.9176 50.8235 42.9882 50.8235 43.0588L43.6941 43.0588C43.7647 43.9765 44.1176 44.6824 44.7529 45.1765C45.3882 45.7412 46.0941 46.0235 47.0118 46.0235C47.6471 46.0235 48.2118 45.8824 48.6353 45.6C49.1294 45.3176 49.4824 44.9647 49.6941 44.5412L50.4 44.9647C50.0471 45.5294 49.6235 45.9529 48.9882 46.2353C48.4235 46.5882 47.7176 46.7294 46.9412 46.7294C45.7412 46.7294 44.7529 46.3059 43.9765 45.6C43.2 44.8235 42.8471 43.8353 42.8471 42.6353C42.8471 41.4353 43.2 40.5176 43.9765 39.6706C44.7529 38.8941 45.7412 38.4706 46.9412 38.4706C48.0706 38.4706 49.0588 38.8941 49.7647 39.6706C50.4706 40.5176 50.8235 41.4353 50.8235 42.5647C50.8235 42.7059 50.8235 42.7765 50.8235 42.8471ZM44.1882 32.8941L40.5177 27.7412L36.8471 32.8941H30.0706L37.1294 22.9412L30.3529 13.2706H37.1294L40.5177 18.1412L43.9059 13.2706H50.6824L43.9059 22.9412L50.8941 32.8941L44.1882 32.8941ZM46.9412 39.3176C46.0235 39.3176 45.3176 39.6 44.6824 40.1647C44.1176 40.7294 43.7647 41.4353 43.6941 42.2824H49.9765C49.9059 41.3647 49.5529 40.5882 48.9882 40.0941C48.4235 39.5294 47.7176 39.3176 46.9412 39.3176ZM21.6706 39.3176C20.7529 39.3176 19.9765 39.6706 19.3412 40.3059C18.7059 40.9412 18.3529 41.7176 18.3529 42.7059C18.3529 43.6235 18.7059 44.4 19.3412 45.1059C19.9765 45.7412 20.7529 46.0941 21.6706 46.0941C22.5882 46.0941 23.3647 45.7412 24 45.1059C24.6353 44.4706 24.9176 43.6941 24.9176 42.7059C24.9176 41.7882 24.5647 41.0118 24 40.3059C23.3647 39.6 22.5882 39.3176 21.6706 39.3176ZM24 40.2353C23.3647 39.6 22.5882 39.2471 21.6706 39.2471C20.7529 39.2471 19.9765 39.6 19.3412 40.2353C18.7059 40.8706 18.3529 41.6471 18.3529 42.6353C18.3529 43.5529 18.7059 44.3294 19.3412 45.0353C19.9765 45.6706 20.7529 46.0235 21.6706 46.0235C22.5882 46.0235 23.3647 45.6706 24 45.0353C24.6353 44.4 24.9176 43.6235 24.9176 42.6353C24.9882 41.7176 24.6353 40.9412 24 40.2353ZM24 40.2353C23.3647 39.6 22.5882 39.2471 21.6706 39.2471C20.7529 39.2471 19.9765 39.6 19.3412 40.2353C18.7059 40.8706 18.3529 41.6471 18.3529 42.6353C18.3529 43.5529 18.7059 44.3294 19.3412 45.0353C19.9765 45.6706 20.7529 46.0235 21.6706 46.0235C22.5882 46.0235 23.3647 45.6706 24 45.0353C24.6353 44.4 24.9176 43.6235 24.9176 42.6353C24.9882 41.7176 24.6353 40.9412 24 40.2353Z" fill="#3B3B3B"/>
</svg>
