<svg width="60" height="60" viewBox="0 0 60 60" fill="none" xmlns="http://www.w3.org/2000/svg">
<path d="M44.1578 7.89504L44.5113 7.54148L48.785 3.2678C49.5974 2.45541 50.912 2.45402 51.7228 3.26637L44.1578 7.89504ZM44.1578 7.89504L44.5113 8.24859M44.1578 7.89504L44.5113 8.24859M44.5113 8.24859L51.7514 15.4887L52.105 15.8422M44.5113 8.24859L52.105 15.8422M52.105 15.8422L52.4585 15.4887M52.105 15.8422L52.4585 15.4887M52.4585 15.4887L56.7322 11.215M52.4585 15.4887L56.7322 11.215M56.7322 11.215C57.5449 10.4023 57.5457 9.0877 56.7322 8.2758V11.215ZM17.0175 50.2226L17.3711 50.5761L17.7246 50.2226L50.2257 17.7215L50.5793 17.3679L50.2257 17.0144L42.9856 9.77426L42.6321 9.42071L42.2785 9.77426L9.7774 42.2754L9.42385 42.6289L9.7774 42.9825L17.0175 50.2226ZM28.7763 42.9294L28.4228 42.5758L28.0692 42.9294L18.1698 52.8288L17.7246 53.1223L1.98358 59.4187C1.10293 59.771 0.229007 58.8971 0.581266 58.0164L6.87766 42.2754L7.17125 41.8302L17.0706 31.9308L17.4242 31.5772L17.0706 31.2237L0.820084 14.9731C0.39878 14.5518 0.398781 13.8688 0.820084 13.4475L13.4506 0.816945C13.8719 0.395642 14.555 0.395643 14.9763 0.816945L31.2268 17.0675L31.5804 17.4211L31.9339 17.0675L47.2593 1.74213C48.9157 0.0857061 51.5983 0.0863582 53.2494 1.74168L53.2499 1.74213L58.2564 6.7487L58.2569 6.74915C59.9137 8.40176 59.9142 11.0844 58.2579 12.7407L42.9325 28.0661L42.5789 28.4196L42.9325 28.7732L59.1831 45.0237C59.6044 45.445 59.6044 46.1281 59.1831 46.5494L46.5525 59.1799C46.1312 59.6012 45.4482 59.6012 45.0269 59.1799L28.7763 42.9294ZM30.302 40.6966L29.9484 41.0501L30.302 41.4037L45.4362 56.5379L45.7897 56.8914L46.1433 56.5379L56.541 46.1401L56.8945 45.7866L56.541 45.433L52.4585 41.3505L52.105 40.997L51.7514 41.3505L49.7102 43.3918C49.434 43.668 49.1528 43.7491 48.9069 43.7346C48.6488 43.7194 48.3883 43.5955 48.1845 43.3918C47.9807 43.188 47.8568 42.9275 47.8417 42.6693C47.8272 42.4235 47.9083 42.1423 48.1845 41.8661L50.2257 39.8249L50.5793 39.4713L50.2257 39.1178L46.1433 35.0353L45.7897 34.6817L45.4362 35.0353L40.2373 40.2341C39.9611 40.5103 39.6799 40.5914 39.434 40.577C39.1759 40.5618 38.9154 40.4379 38.7116 40.2341C38.5079 40.0304 38.384 39.7699 38.3688 39.5117C38.3543 39.2659 38.4354 38.9847 38.7116 38.7085L43.9105 33.5096L44.264 33.1561L43.9105 32.8025L41.4068 30.2988L41.0533 29.9453L40.6997 30.2988L30.302 40.6966ZM18.5963 29.698L18.9499 30.0516L19.3034 29.698L29.7012 19.3003L30.0547 18.9467L29.7012 18.5932L27.1975 16.0895L26.8439 15.736L26.4904 16.0895L24.4492 18.1308C24.173 18.4069 23.8917 18.4881 23.6459 18.4736C23.3878 18.4584 23.1272 18.3345 22.9235 18.1308C22.7197 17.927 22.5958 17.6665 22.5806 17.4083C22.5662 17.1625 22.6473 16.8813 22.9235 16.6051L24.9647 14.5638L25.3183 14.2103L24.9647 13.8567L20.8822 9.77426L20.5287 9.42071L20.1751 9.77426L14.9763 14.9731C14.7001 15.2493 14.4189 15.3304 14.173 15.316C13.9149 15.3008 13.6544 15.1769 13.4506 14.9731C13.2468 14.7694 13.1229 14.5088 13.1078 14.2507C13.0933 14.0049 13.1744 13.7236 13.4506 13.4475L18.6495 8.24859L19.003 7.89504L18.6495 7.54148L14.567 3.45901L14.2134 3.10545L13.8599 3.45901L3.46215 13.8567L3.10859 14.2103L3.46215 14.5638L18.5963 29.698ZM14.7473 51.9894L15.4513 51.7078L14.9152 51.1716L8.82839 45.0848L8.29221 44.5486L8.0106 45.2527L3.95274 55.3973L3.51945 56.4806L4.60267 56.0473L14.7473 51.9894ZM56.7317 8.27535L51.7232 3.26683L56.7317 8.27535Z" fill="#3B3B3B" stroke="#3B3B3B"/>
</svg>
