<svg width="20" height="20" viewBox="0 0 20 20" fill="none" xmlns="http://www.w3.org/2000/svg">
<path d="M10 0C4.48534 0 0 4.48534 0 10C0 15.5147 4.48534 20 10 20C15.5147 20 20 15.5147 20 10C20 4.48534 15.5147 0 10 0ZM10 1.37931C14.7692 1.37931 18.6207 5.23079 18.6207 10C18.6207 14.7692 14.7692 18.6207 10 18.6207C5.23079 18.6207 1.37931 14.7692 1.37931 10C1.37931 5.23079 5.23079 1.37931 10 1.37931ZM8.20041 4.82759C7.90217 4.83414 7.61493 4.92221 7.37069 5.07545C6.88221 5.3819 6.56503 5.94103 6.55172 6.57328C6.55161 6.5804 6.55161 6.58753 6.55172 6.59466V13.3942C6.55161 13.4014 6.55161 13.4085 6.55172 13.4156C6.56517 14.0478 6.883 14.6055 7.37069 14.9135C7.85838 15.2215 8.52972 15.2528 9.08407 14.9348C9.09126 14.9314 9.09838 14.9278 9.10545 14.9241L14.6766 11.5082C15.1817 11.198 15.5171 10.6258 15.5171 9.9888C15.5171 9.35187 15.1817 8.79037 14.6766 8.48016L9.10545 5.06423C9.09838 5.06055 9.09126 5.05698 9.08407 5.05354C8.80741 4.89496 8.49872 4.82066 8.20041 4.82725V4.82759ZM8.23283 6.19614C8.28017 6.19614 8.33528 6.20993 8.40524 6.25L13.9548 9.65517C14.0569 9.71786 14.138 9.82556 14.138 9.98925C14.138 10.1529 14.0569 10.2713 13.9548 10.3341L8.40524 13.7392C8.26631 13.8189 8.18917 13.8041 8.10352 13.7499C8.01993 13.6971 7.9391 13.5876 7.9311 13.3943V13.3836V6.60562V6.59493C7.93903 6.40176 8.02072 6.29124 8.10352 6.23931C8.14593 6.21276 8.18548 6.19689 8.23283 6.19621V6.19614Z" fill="#0A3180"/>
</svg>
