<svg width="457" height="16" viewBox="0 0 457 16" fill="none" xmlns="http://www.w3.org/2000/svg">
<path d="M5.50188 6.20371C42.5698 4.80934 74.1429 1.78785 111.733 1.78785C115.582 1.6265 119.53 1.68982 123.341 1.5251C127.357 1.3515 131.648 1.5779 135.577 1.32168C147.622 0.536245 160.425 0.870606 172.661 0.304591C182.277 -0.140254 192.167 0.0333676 201.901 0.0333676C224.217 0.0333676 246.488 0.453903 268.695 1.00808C319.218 2.26883 370.253 0.574998 420.795 1.94041C432.038 2.24416 418.655 2.45447 416.34 2.9236C415.086 3.17759 419.403 3.10458 420.952 3.16939C423.325 3.26875 425.674 3.40043 428.042 3.50842C433.985 3.77947 440.037 3.89125 446.051 3.96611C447.895 3.98908 453.208 4.0245 451.51 4.22039C448.209 4.60105 444.435 4.83377 440.999 5.08491C433.209 5.6544 425.274 6.06723 417.5 6.65292C414.931 6.84656 411.735 7.04839 409.469 7.47507C407.188 7.90462 406.2 8.19033 403.069 8.41588C400.217 8.62131 397.304 8.79346 394.41 8.94985C392.463 9.05501 392.312 8.97463 394.033 9.18717C395.528 9.37176 397.24 9.44119 398.802 9.58553C407.735 10.4112 417.225 10.8518 426.473 11.3231C435.949 11.8059 445.326 12.5185 454.835 12.9335C459.622 13.1424 455.259 12.9802 453.298 12.925C450.461 12.8452 447.632 12.8767 444.796 12.8148C435.65 12.6151 426.34 12.5088 417.187 12.391C405.407 12.2395 393.59 12.3106 381.797 12.23C362.99 12.1013 344.209 11.7479 325.388 11.6197C284.962 11.3444 244.615 11.0152 204.16 11.2044C181.413 11.3108 158.692 11.6624 135.953 11.8486C111.868 12.0457 87.9017 12.0013 64.0451 13.0352C50.1827 13.6359 36.7437 14.5494 23.3221 15.6372C23.1095 15.6544 17.1727 16.1073 18.2396 15.9762C21.8283 15.5356 28.2253 15.1125 20.9691 14.4591C19.8259 14.3561 15.0952 14.2124 15.5414 13.7302C15.8989 13.3438 16.1243 12.9346 17.1101 12.6198C21.3468 11.2672 9.31651 11.2109 6.25484 11.0179C4.18576 10.8875 1.3048 10.7284 4.62341 10.4924C9.99326 10.1107 15.6021 9.78778 20.8122 9.27193C21.1264 9.24082 30.5174 7.96961 27.0556 7.83105C21.8574 7.62301 16.6215 7.62737 11.4001 7.35641C8.94317 7.22891 1.61714 7.18493 0.0114887 6.53426C-0.288278 6.41279 5.37658 6.20842 5.50188 6.20371Z" fill="#F39E41"/>
</svg>
